<?xml version="1.0" encoding="UTF-8"?>
<svg id="Layer_1" xmlns="http://www.w3.org/2000/svg" version="1.1" viewBox="0 0 510.24 510.24">
  <!-- Generator: Adobe Illustrator 29.6.0, SVG Export Plug-In . SVG Version: 2.1.1 Build 207)  -->
  <defs>
    <style>
      .st0 {
        fill: #dfc3a0;
      }

      .st1 {
        fill: #5f8f9c;
      }

      .st2 {
        fill: #78b4c4;
      }
    </style>
  </defs>
  <g>
    <g>
      <path class="st0" d="M473.55,201.28c-1.02,7.18-3.49,26.86-6.9,37.5-6.33,19.71-15.23,34.65-22.09,44.43-15.06,21.47-31.71,34.36-40.15,40.28-8.78,6.16-26.39,17.23-51.26,24-37.47,10.2-68.56,4.39-79.53,1.91-38.57-8.69-63.98-29.15-75.51-39.83-8.88-8.22-37.5-36.55-48.51-83.3-2.36-10.03-6.3-31.02-3.13-57.45,4.35-36.28,19.55-61.48,25.47-70.53,20.38-31.15,46.6-47.78,62.04-55.72,15.58-8.02,29.71-12.1,39.73-14.31-9.5,2.84-68.29,21.48-97.7,83.15-2.54,5.33-32.5,71.02,2.04,139.06,5.81,11.44,26.18,48.06,70.47,69.62,50.08,24.38,114.24,21.48,162.55-13.96,50.37-36.95,60.51-92.39,62.47-104.85"/>
      <path class="st0" d="M483.96,247.61c-4.37,16.38-10.39,29.97-16,40.43-5.42,10.1-16.7,28.88-36.43,47.66-23.01,21.91-45.8,32.66-54.89,36.6-46.97,20.34-90.39,15.56-110.64,11.74-34.93-6.58-59.24-21.25-68.77-27.49-10.93-7.16-31.03-21.97-49.11-46.98-22.87-31.64-30.51-63.02-33.36-80.34-3.07-18.6-6.43-56.28,9.96-98.98,4.87-12.7,19.38-46.38,52.85-75.23,22.72-19.58,44.78-28.85,51.4-31.49,15.93-6.35,31.58-9.82,31.68-9.49.08.26-9.54,2.89-21.8,8.33-3.69,1.64-14.57,6.62-27.13,14.94-20.28,13.43-33.25,27.83-37.98,33.32-16.64,19.33-25.19,37.52-28.46,45.06-2.65,6.09-11.29,26.94-13.92,55.88-2.19,24.04.8,42.33,1.6,46.88,5.14,29.51,16.8,49.95,22.66,60,11.31,19.41,23.06,31.75,26.49,35.27,3.71,3.8,12.63,12.59,25.72,21.64,30.96,21.39,61.47,27.79,73.31,29.81,29.37,5,52.64,1.58,61.37.03,9.7-1.71,34.51-6.94,61.85-23.59,23.96-14.58,38.81-31.21,45.13-38.84,5.9-7.12,26.64-33.31,36.06-71.27,2.36-9.49,3.93-19.41,4.31-19.34.49.08-.99,17-5.91,35.45Z"/>
    </g>
    <g>
      <path class="st2" d="M32.51,347.5c.02-.7,4.51-49.19,49.02-82.51,8.12-6.07,31.35-22.99,66.21-25.58,41.82-3.11,72.07,16.49,82.21,23.83,9.68,7.01,35.16,27.55,46.64,64.85,2.64,8.57,12.3,43.24-3.06,82.38-3.16,8.06-12.55,29.46-34.38,48.51-23.35,20.38-47.47,25.69-47.32,26.04.17.41,33.64-5.75,62.06-32.7,5.83-5.53,22.66-22.57,32.68-50.55,4.58-12.8,14.49-46.75,1.19-86.3-11.3-33.6-33.37-53.46-44.64-62.13-11.13-8.56-36.24-25.05-72.13-27.23-40.95-2.49-70.47,15.19-80.17,21.62,0,0-31.33,20.75-46.47,53.96-3.25,7.12-6.7,17.71-8.65,25.11-1.23,4.68-2.26,8.66-2.7,13.91-.18,2.18-.47,7.07-.51,7.06,0,0,0-.22,0-.28Z"/>
      <path class="st2" d="M20.27,336.38c.01-.1.04-.24.06-.41,7.23-45.08,35.07-74.61,38.74-78.4,6.57-6.78,23.72-23.12,51.23-33.7,34.65-13.33,64.99-9.56,77.45-7.32,12.94,2.33,40.46,9.1,66.89,31.15,9.33,7.78,38.92,34.47,48.68,80.51,7.12,33.59.27,61.35-4.43,75.4,0,0-16.65,49.79-60.77,77.11-8.42,5.21-16.72,8.87-16.72,8.87-10.01,4.41-18.06,6.43-18,6.62.06.2,8.46-1.63,17.91-4.98,4.24-1.5,16.46-6.07,30.86-15.38,18.96-12.27,30.55-25.55,33.1-28.53,4.35-5.09,17.38-21.04,26.33-45.61,13.38-36.71,8.87-68.51,7.28-77.85-2.35-13.81-9.14-42.03-31.32-69.45-27.86-34.44-62.77-46.31-75.4-49.96-12.32-3.56-40.56-10-75.06-2.21-8.93,2.02-48.58,11.82-80.09,47.49-15.71,17.78-23.78,35.64-27.4,44.85-5.6,14.23-8.13,32.33-9.34,41.8"/>
    </g>
  </g>
  <g>
    <g>
      <path class="st1" d="M118.17,245.41c6.1-2.06,12.84-3.8,20.2-4.93-1.15-3.63-2.24-7.47-3.21-11.51-7.16,1.59-13.65,3.66-19.37,5.89.63,3.21,1.41,6.75,2.38,10.55Z"/>
      <path class="st1" d="M294.02,366.88c-3.86-.38-7.87-.9-12.01-1.58,0,6.46-.5,13.47-1.75,20.87,3.29.37,6.84.69,10.62.91,1.34-5.76,2.53-12.57,3.13-20.19Z"/>
    </g>
    <g>
      <path class="st1" d="M304.66,335.4c.98,6.2,1.51,12.18,1.68,17.87,4.53.08,9.39-.01,14.51-.36.18-6.48-.06-12.19-.45-16.94-5.26.06-10.52-.13-15.74-.57Z"/>
      <path class="st1" d="M147.39,215.04c6.43-.65,12.4-.83,17.77-.72-1.16-5.28-2-10.48-2.58-15.56-5.37.27-11,.84-16.86,1.81.39,5.41.99,10.27,1.67,14.48Z"/>
    </g>
    <g>
      <path class="st1" d="M173.35,240.25c-2-4.79-3.71-9.55-5.14-14.27-6.48-.25-12.67-.01-18.52.6,1.03,4.34,2.22,8.53,3.52,12.56,7.09-.2,13.82.22,20.14,1.11Z"/>
      <path class="st1" d="M292.47,333.9c-5.09-.82-10.13-1.88-15.1-3.18,1.2,4.26,2.89,11.26,3.87,20.19,3.66.63,8.08,1.26,13.14,1.71-.17-5.94-.76-12.21-1.91-18.72Z"/>
    </g>
    <g>
      <path class="st1" d="M113.8,222.58c6.53-2.32,12.88-4.04,18.98-5.3-.43-2.58-1.12-7.26-1.61-13.55-4.64,1.28-11.07,3.32-18.55,6.46.29,4.56.71,8.71,1.18,12.39Z"/>
      <path class="st1" d="M319.76,367.62c-4.18.17-8.77.21-13.7.05-.51,7.3-1.54,13.92-2.76,19.73,4.11-.02,8.41-.17,12.86-.48,1.71-6.75,2.86-13.22,3.6-19.3Z"/>
    </g>
  </g>
</svg>