<?xml version="1.0" encoding="UTF-8"?>
<svg id="Layer_1" xmlns="http://www.w3.org/2000/svg" version="1.1" viewBox="0 0 374.77 123.57">
  <!-- Generator: Adobe Illustrator 29.6.0, SVG Export Plug-In . SVG Version: 2.1.1 Build 207)  -->
  <defs>
    <style>
      .st0 {
        fill: #dfc3a0;
      }

      .st1 {
        fill: #5f8f9c;
      }

      .st2 {
        fill: #78b4c4;
      }

      .st3 {
        font-family: Ubuntu-Light, Ubuntu;
        font-size: 108px;
        font-weight: 300;
      }
    </style>
  </defs>
  <text class="st3" transform="translate(27.36 94.68) scale(1.34 1)"><tspan x="0" y="0" xml:space="preserve">n   td</tspan></text>
  <g>
    <g>
      <g>
        <path class="st0" d="M197.81,58.41c-.19,1.35-.66,5.06-1.3,7.07-1.19,3.71-2.87,6.53-4.16,8.37-2.84,4.05-5.98,6.47-7.57,7.59-1.65,1.16-4.97,3.25-9.66,4.52-7.06,1.92-12.92.83-14.99.36-7.27-1.64-12.06-5.49-14.23-7.51-1.67-1.55-7.07-6.89-9.14-15.7-.45-1.89-1.19-5.85-.59-10.82.82-6.84,3.68-11.59,4.8-13.29,3.84-5.87,8.78-9,11.69-10.5,2.93-1.51,5.6-2.28,7.49-2.7-1.79.54-12.87,4.05-18.41,15.67-.48,1-6.12,13.38.38,26.2,1.09,2.16,4.93,9.06,13.28,13.12,9.44,4.59,21.53,4.05,30.63-2.63,9.49-6.96,11.4-17.41,11.77-19.76"/>
        <path class="st0" d="M199.77,67.14c-.82,3.09-1.96,5.65-3.01,7.62-1.02,1.9-3.15,5.44-6.86,8.98-4.34,4.13-8.63,6.15-10.34,6.9-8.85,3.83-17.03,2.93-20.85,2.21-6.58-1.24-11.16-4-12.96-5.18-2.06-1.35-5.85-4.14-9.25-8.85-4.31-5.96-5.75-11.88-6.29-15.14-.58-3.51-1.21-10.61,1.88-18.65.92-2.39,3.65-8.74,9.96-14.18,4.28-3.69,8.44-5.44,9.69-5.93,3-1.2,5.95-1.85,5.97-1.79.02.05-1.8.54-4.11,1.57-.7.31-2.74,1.25-5.11,2.81-3.82,2.53-6.27,5.24-7.16,6.28-3.14,3.64-4.75,7.07-5.36,8.49-.5,1.15-2.13,5.08-2.62,10.53-.41,4.53.15,7.98.3,8.83.97,5.56,3.17,9.41,4.27,11.31,2.13,3.66,4.35,5.98,4.99,6.65.7.72,2.38,2.37,4.85,4.08,5.83,4.03,11.58,5.24,13.81,5.62,5.53.94,9.92.3,11.56,0,1.83-.32,6.5-1.31,11.65-4.44,4.51-2.75,7.31-5.88,8.5-7.32,1.11-1.34,5.02-6.28,6.8-13.43.44-1.79.74-3.66.81-3.64.09.02-.19,3.2-1.11,6.68Z"/>
      </g>
      <g>
        <path class="st2" d="M114.7,85.96c0-.13.85-9.27,9.24-15.55,1.53-1.14,5.91-4.33,12.48-4.82,7.88-.59,13.58,3.11,15.49,4.49,1.82,1.32,6.62,5.19,8.79,12.22.5,1.62,2.32,8.15-.58,15.52-.6,1.52-2.36,5.55-6.48,9.14-4.4,3.84-8.94,4.84-8.92,4.91.03.08,6.34-1.08,11.69-6.16,1.1-1.04,4.27-4.25,6.16-9.53.86-2.41,2.73-8.81.22-16.26-2.13-6.33-6.29-10.07-8.41-11.71-2.1-1.61-6.83-4.72-13.59-5.13-7.72-.47-13.28,2.86-15.11,4.07,0,0-5.9,3.91-8.76,10.17-.61,1.34-1.26,3.34-1.63,4.73-.23.88-.43,1.63-.51,2.62-.03.41-.09,1.33-.1,1.33,0,0,0-.04,0-.05Z"/>
        <path class="st2" d="M112.4,83.86s0-.04.01-.08c1.36-8.49,6.61-14.06,7.3-14.77,1.24-1.28,4.47-4.36,9.65-6.35,6.53-2.51,12.25-1.8,14.59-1.38,2.44.44,7.62,1.72,12.6,5.87,1.76,1.47,7.33,6.49,9.17,15.17,1.34,6.33.05,11.56-.83,14.21,0,0-3.14,9.38-11.45,14.53-1.59.98-3.15,1.67-3.15,1.67-1.89.83-3.4,1.21-3.39,1.25.01.04,1.59-.31,3.37-.94.8-.28,3.1-1.14,5.82-2.9,3.57-2.31,5.76-4.81,6.24-5.38.82-.96,3.27-3.96,4.96-8.59,2.52-6.92,1.67-12.91,1.37-14.67-.44-2.6-1.72-7.92-5.9-13.09-5.25-6.49-11.83-8.73-14.21-9.41-2.32-.67-7.64-1.88-14.14-.42-1.68.38-9.15,2.23-15.09,8.95-2.96,3.35-4.48,6.72-5.16,8.45-1.06,2.68-1.53,6.09-1.76,7.88"/>
      </g>
    </g>
    <g>
      <g>
        <path class="st1" d="M130.84,66.72c1.15-.39,2.42-.72,3.81-.93-.22-.68-.42-1.41-.61-2.17-1.35.3-2.57.69-3.65,1.11.12.6.27,1.27.45,1.99Z"/>
        <path class="st1" d="M163.98,89.61c-.73-.07-1.48-.17-2.26-.3,0,1.22-.09,2.54-.33,3.93.62.07,1.29.13,2,.17.25-1.08.48-2.37.59-3.8Z"/>
      </g>
      <g>
        <path class="st1" d="M165.98,83.68c.19,1.17.28,2.29.32,3.37.85.02,1.77,0,2.73-.07.03-1.22-.01-2.3-.08-3.19-.99.01-1.98-.02-2.97-.11Z"/>
        <path class="st1" d="M136.35,61c1.21-.12,2.34-.16,3.35-.14-.22-1-.38-1.97-.49-2.93-1.01.05-2.07.16-3.18.34.07,1.02.19,1.94.31,2.73Z"/>
      </g>
      <g>
        <path class="st1" d="M141.24,65.75c-.38-.9-.7-1.8-.97-2.69-1.22-.05-2.39,0-3.49.11.19.82.42,1.61.66,2.37,1.34-.04,2.6.04,3.79.21Z"/>
        <path class="st1" d="M163.69,83.4c-.96-.15-1.91-.35-2.84-.6.23.8.54,2.12.73,3.8.69.12,1.52.24,2.48.32-.03-1.12-.14-2.3-.36-3.53Z"/>
      </g>
      <g>
        <path class="st1" d="M130.02,62.42c1.23-.44,2.43-.76,3.58-1-.08-.49-.21-1.37-.3-2.55-.87.24-2.09.62-3.49,1.22.05.86.13,1.64.22,2.34Z"/>
        <path class="st1" d="M168.83,89.75c-.79.03-1.65.04-2.58,0-.1,1.38-.29,2.62-.52,3.72.77,0,1.58-.03,2.42-.09.32-1.27.54-2.49.68-3.64Z"/>
      </g>
    </g>
  </g>
</svg>